<svg width="26" height="30" viewBox="0 0 26 30" fill="none" xmlns="http://www.w3.org/2000/svg">
<g clip-path="url(#clip0)">
<path d="M23.8125 4.61539H18.75L22.0731 7.92981C22.8233 8.67598 23.4783 9.51214 24.0231 10.4192C24.2106 10.7279 24.3837 11.0394 24.5481 11.3654C24.6317 11.524 24.7096 11.6885 24.7817 11.8529C24.825 11.951 24.8712 12.049 24.9087 12.1413C24.9462 12.2337 24.9952 12.3375 25.0327 12.4298C25.1106 12.6317 25.1885 12.8365 25.2577 13.0385C25.3067 13.1885 25.3558 13.3413 25.4019 13.4942V6.19039C25.3974 5.77159 25.228 5.37144 24.9305 5.07664C24.633 4.78184 24.2313 4.61612 23.8125 4.61539Z" fill="#F5A3AE"/>
<path d="M17.9654 4.61539L13.826 0.467309C13.6785 0.31904 13.5032 0.201378 13.3102 0.121088C13.1171 0.040799 12.9101 -0.000534058 12.701 -0.000534058C12.4919 -0.000534058 12.2848 0.040799 12.0918 0.121088C11.8987 0.201378 11.7234 0.31904 11.576 0.467309L7.99329 4.03846H12.6923C13.9771 4.04507 15.2541 4.23943 16.4827 4.61539C17.3618 4.87571 18.2108 5.22865 19.0154 5.66827L17.9654 4.61539Z" fill="#EF7586"/>
<path d="M25.3846 16.7712C25.3846 16.7164 25.3846 16.6673 25.3846 16.6154C25.3846 16.4365 25.3615 16.2606 25.3442 16.0817C25.3269 15.9029 25.301 15.6779 25.2721 15.4789C25.2433 15.2798 25.2087 15.0779 25.1683 14.876C25.1279 14.674 25.0962 14.4779 25.0385 14.2789C24.9808 14.0798 24.9462 13.9125 24.8913 13.7308C24.874 13.6615 24.851 13.5923 24.8308 13.5231C24.7904 13.3933 24.7471 13.2606 24.701 13.1337C24.701 13.1106 24.701 13.0904 24.6808 13.0702C24.6288 12.9289 24.574 12.7817 24.5192 12.6433L24.4529 12.4817C24.401 12.3433 24.3404 12.1933 24.2798 12.075C24.2625 12.0346 24.2423 11.9942 24.225 11.9567C24.1587 11.8096 24.0865 11.6683 24.0144 11.5212L23.9135 11.3365C23.8288 11.1712 23.7394 11.0096 23.6452 10.8519C23.5673 10.7164 23.4837 10.5894 23.4 10.4567C23.2846 10.274 23.1635 10.0952 23.0365 9.9202C22.9933 9.85674 22.9471 9.79328 22.8981 9.7327C22.7712 9.55963 22.6385 9.38943 22.5029 9.22501C22.4135 9.11251 22.3183 9.0029 22.2144 8.89328L22.0962 8.76059L21.6779 8.31924C20.4969 7.14183 19.0955 6.2087 17.5537 5.57318C16.0119 4.93765 14.3599 4.61219 12.6923 4.6154H1.59231C1.17298 4.61537 0.770574 4.78075 0.472451 5.07564C0.174328 5.37052 0.00455787 5.7711 0 6.1904L0 17.3077C0 17.4808 0 17.6596 0 17.8356C0 17.8904 0 17.9394 0 17.9914C0 18.1702 0.0230769 18.3491 0.0403846 18.525C0.0576923 18.701 0.0836538 18.9289 0.115385 19.1308C0.147115 19.3327 0.175962 19.5346 0.216346 19.7337C0.256731 19.9327 0.297115 20.1317 0.346154 20.3337C0.395192 20.5356 0.438462 20.6914 0.490385 20.8673C0.553846 21.101 0.631731 21.3317 0.7125 21.5567C0.758654 21.6923 0.810577 21.8279 0.865385 21.9635L0.949038 22.1625C0.975 22.2289 1.00385 22.2952 1.03269 22.3558C1.06154 22.4164 1.09615 22.5058 1.13077 22.5779C1.16538 22.65 1.17981 22.6846 1.20865 22.7394C1.21363 22.7601 1.22243 22.7797 1.23462 22.7971C1.29231 22.9212 1.35577 23.0452 1.41923 23.1664C1.43464 23.2015 1.45297 23.2353 1.47404 23.2673C1.4852 23.2944 1.49871 23.3205 1.51442 23.3452C1.53274 23.3842 1.55396 23.4218 1.57788 23.4577C1.60667 23.5166 1.63944 23.5735 1.67596 23.6279C1.69184 23.6643 1.71116 23.699 1.73365 23.7317C1.74128 23.7458 1.74995 23.7593 1.75962 23.7721C1.80288 23.8471 1.84615 23.925 1.89808 24C1.95 24.075 1.99904 24.1673 2.05385 24.2481C2.06445 24.2618 2.07409 24.2763 2.08269 24.2914L2.14904 24.3952L2.20385 24.4702L2.27596 24.5769C2.29615 24.6029 2.31346 24.6231 2.33077 24.6491C2.34808 24.675 2.42019 24.7731 2.46346 24.8366C2.47852 24.8536 2.49204 24.8719 2.50385 24.8914C2.60769 25.0327 2.71731 25.1798 2.82981 25.3067L2.88173 25.3731L2.93365 25.4308C3.01731 25.5346 3.10962 25.6356 3.19615 25.7366C3.21635 25.7625 3.23942 25.7827 3.25673 25.8058L3.27981 25.8317L3.31731 25.8664C3.31731 25.8664 3.34038 25.8981 3.35481 25.9067C3.46442 26.0308 3.58269 26.1519 3.70385 26.2731C3.825 26.3942 3.99231 26.5616 4.14231 26.6914L4.2375 26.775C4.32981 26.8587 4.41635 26.9366 4.52596 27.0116L4.61538 27.1154L4.67885 27.1673C4.80288 27.2683 4.93269 27.3664 5.05962 27.4558C5.07004 27.4678 5.0828 27.4776 5.09712 27.4846C5.22981 27.5885 5.36827 27.6866 5.5125 27.7731L5.63942 27.8625C5.69414 27.9021 5.75095 27.9387 5.80962 27.9721C5.82278 27.9798 5.83532 27.9885 5.84712 27.9981C5.87885 28.0154 5.90769 28.0385 5.94231 28.0558L5.98269 28.0789L6.03173 28.1164L6.09808 28.1567L6.16731 28.1971C6.32019 28.2866 6.47308 28.376 6.62596 28.4596L6.675 28.4856C6.74712 28.526 6.82212 28.5664 6.9 28.6039C6.98806 28.6527 7.07856 28.697 7.17115 28.7366H7.21154C7.35192 28.8058 7.49615 28.8721 7.64423 28.9356C7.70769 28.9673 7.77115 28.9933 7.8375 29.0192L8.04231 29.1029C8.175 29.1577 8.31058 29.2096 8.44615 29.2558C8.67115 29.3366 8.90192 29.4144 9.13558 29.4779C9.31442 29.5298 9.49327 29.576 9.67212 29.6221C9.85096 29.6683 10.0673 29.7144 10.2692 29.7519C10.4712 29.7894 10.6702 29.8241 10.875 29.8529C11.0798 29.8817 11.276 29.9077 11.4808 29.9279C11.6856 29.9481 11.8327 29.9567 12.0115 29.9683H12.1673C12.3433 29.9683 12.5221 29.9683 12.6981 29.9683C12.874 29.9683 13.05 29.9683 13.226 29.9683H13.3788C13.5577 29.9683 13.7365 29.9452 13.9125 29.9279C14.0885 29.9106 14.3192 29.8846 14.5212 29.8529C14.7231 29.8212 14.9221 29.7923 15.1212 29.7519C15.3202 29.7116 15.5192 29.6712 15.7212 29.6221C15.9231 29.5731 16.076 29.5298 16.2548 29.4779L16.4712 29.4144L16.8635 29.2846L16.9269 29.2644L17.3538 29.1029C17.4894 29.051 17.6423 28.9933 17.7577 28.9327C17.8731 28.8721 18.0462 28.8029 18.1904 28.7337H18.2135C18.2277 28.7287 18.2413 28.7219 18.2538 28.7135C18.4154 28.6385 18.5712 28.5577 18.724 28.4741H18.75C18.776 28.4614 18.801 28.4469 18.825 28.4308C18.9548 28.3616 19.0817 28.2866 19.2087 28.2116C19.3077 28.1568 19.404 28.0971 19.4971 28.0327L19.5404 28.0067L19.7481 27.8712C19.8606 27.7962 19.9702 27.7212 20.0769 27.6433L20.2615 27.5106C20.2724 27.501 20.2839 27.4923 20.2962 27.4846C20.4346 27.3808 20.5846 27.2741 20.7087 27.1616L20.7692 27.1154L20.8356 27.0606C20.8529 27.0433 20.876 27.0289 20.899 27.0058C20.9221 26.9827 20.899 27.0058 20.899 27.0058C20.9683 26.951 21.0346 26.8933 21.101 26.8327C21.1272 26.8131 21.1523 26.7919 21.176 26.7692L21.225 26.726C21.375 26.5875 21.5135 26.4375 21.6635 26.3077C21.8048 26.1635 21.9519 26.0192 22.0817 25.8664C22.1769 25.7625 22.2692 25.6587 22.3558 25.5519C22.399 25.5058 22.4423 25.4539 22.4827 25.4077C22.5231 25.3616 22.5173 25.3673 22.5346 25.3442C22.6212 25.2346 22.7135 25.1192 22.7971 25.0067C22.8198 24.9818 22.8401 24.9547 22.8577 24.926C22.9615 24.7904 23.0596 24.6519 23.1462 24.5106C23.1779 24.4644 23.2067 24.4269 23.2356 24.3808C23.2752 24.3261 23.3117 24.2693 23.3452 24.2106C23.3557 24.1995 23.3645 24.1869 23.3712 24.1731C23.3921 24.1424 23.4113 24.1106 23.4288 24.0779L23.4519 24.0404L23.4894 23.9885C23.5067 23.9625 23.5212 23.9366 23.5356 23.9106C23.5507 23.8885 23.5642 23.8654 23.576 23.8414C23.6683 23.6885 23.7548 23.5356 23.8385 23.3827C23.8385 23.3654 23.8558 23.351 23.8644 23.3366L23.9654 23.1433C23.9732 23.1324 23.9799 23.1208 23.9856 23.1087C24.0288 23.0221 24.0721 22.9356 24.1125 22.8462C24.1817 22.7019 24.2452 22.5577 24.3087 22.4106C24.34 22.3477 24.3679 22.2832 24.3923 22.2173L24.476 22.0183C24.5308 21.8856 24.5827 21.75 24.6288 21.6115L24.6692 21.4933C24.7365 21.301 24.7971 21.1087 24.851 20.9164C24.9029 20.7404 24.9519 20.5616 24.9952 20.3827C25.0212 20.2846 25.0413 20.1894 25.0587 20.0942C25.0762 20.0356 25.0897 19.9759 25.099 19.9154C25.099 19.8779 25.099 19.8462 25.1192 19.8087C25.1209 19.8001 25.1209 19.7913 25.1192 19.7827C25.1209 19.7693 25.1209 19.7557 25.1192 19.7423C25.1394 19.6356 25.1596 19.526 25.1769 19.4106L25.2 19.2923C25.2 19.2548 25.2 19.2173 25.2 19.1798C25.2288 18.9779 25.2548 18.7789 25.2721 18.574C25.2894 18.3692 25.3846 18.1731 25.3846 17.9856C25.3846 17.9337 25.3846 17.8846 25.3846 17.8298C25.3846 17.6539 25.3846 17.475 25.3846 17.3019C25.3846 17.1289 25.399 16.9471 25.3846 16.7712ZM20.5385 17.7058C20.5385 17.8212 20.5385 17.9394 20.5125 18.0519C20.4865 18.1644 20.5125 18.2048 20.4865 18.2769C20.4606 18.3491 20.4663 18.4558 20.4519 18.5452C20.4375 18.6346 20.4144 18.7587 20.3913 18.8683C20.3683 18.9779 20.3452 19.0875 20.3163 19.1942C20.2983 19.2811 20.2752 19.3668 20.2471 19.451C20.2404 19.4898 20.2288 19.5276 20.2125 19.5635C20.1946 19.6412 20.1705 19.7174 20.1404 19.7914C20.1144 19.8779 20.0856 19.9673 20.0538 20.051C20.0221 20.1346 19.9817 20.2442 19.9413 20.3394L19.9067 20.4202L19.7913 20.6769C19.7913 20.7087 19.7567 20.7375 19.7423 20.7664C19.699 20.8615 19.6529 20.9539 19.601 21.0548C19.549 21.1558 19.4769 21.2798 19.4106 21.3837C19.3442 21.4875 19.2779 21.6 19.2087 21.7039C19.1394 21.8077 19.0644 21.9087 18.9894 22.0125C18.9144 22.1164 18.7587 22.301 18.6375 22.4481C18.5769 22.5173 18.5135 22.5894 18.4471 22.6587C18.3808 22.7279 18.3173 22.7942 18.251 22.8577C18.0741 23.0374 17.8873 23.2069 17.6913 23.3654C17.6221 23.4231 17.5529 23.4779 17.4779 23.5327C17.3481 23.6394 17.2096 23.7375 17.0683 23.8212C16.9269 23.9048 16.8692 23.9481 16.7798 24.0116C16.6904 24.075 16.6183 24.1039 16.5404 24.15C16.4625 24.1962 16.4221 24.2192 16.3615 24.2481C16.2462 24.3087 16.1337 24.3635 16.0183 24.4183C15.9029 24.4731 15.7846 24.525 15.6692 24.5712C15.5596 24.6173 15.4471 24.6606 15.3317 24.701H15.2885L14.9625 24.8048C14.9598 24.8061 14.9568 24.8068 14.9538 24.8068C14.9509 24.8068 14.9479 24.8061 14.9452 24.8048L14.5933 24.9C14.4692 24.9289 14.3452 24.9577 14.224 24.9779C14.0515 25.0146 13.8773 25.0426 13.7019 25.0616C13.6269 25.0616 13.5548 25.0817 13.4769 25.0875C13.399 25.0933 13.2462 25.1106 13.1308 25.1135C13.0154 25.1164 12.8596 25.1135 12.7269 25.1135C12.5942 25.1135 12.4558 25.1135 12.3202 25.1135C12.1846 25.1135 12.0865 25.0991 11.974 25.0875C11.8615 25.076 11.824 25.0875 11.749 25.0616C11.5731 25.0414 11.4 25.0154 11.2269 24.9779C11.1029 24.9577 10.9788 24.9289 10.8606 24.9L10.5721 24.8192C10.5387 24.8123 10.5059 24.8026 10.474 24.7904L10.2058 24.7067L10.1192 24.675C10.0096 24.6375 9.9 24.5971 9.79038 24.551C9.67212 24.5048 9.55673 24.4529 9.44423 24.3981C9.33173 24.3433 9.21058 24.2885 9.09519 24.2279C9.03462 24.1991 8.97692 24.1644 8.91923 24.1298L8.67692 23.9914L8.38846 23.801C8.24712 23.7058 8.1 23.6077 7.97885 23.5125C7.90385 23.4577 7.83462 23.4029 7.76538 23.3452C7.57212 23.1837 7.3875 23.0164 7.20865 22.8375C7.13968 22.7748 7.0742 22.7084 7.0125 22.6385C6.94615 22.5692 6.88269 22.4971 6.82212 22.4279C6.70096 22.2866 6.58558 22.1394 6.47019 21.9923L6.25096 21.6837C6.18173 21.5798 6.1125 21.4731 6.04904 21.3635C5.98558 21.2539 5.91923 21.15 5.85865 21.0346C5.79808 20.9192 5.76058 20.8529 5.71731 20.7462C5.70259 20.7155 5.68622 20.6856 5.66827 20.6567C5.64231 20.5991 5.61346 20.5385 5.5875 20.4779C5.56154 20.4173 5.52404 20.3279 5.49519 20.25C5.42885 20.0942 5.37115 19.9385 5.31923 19.7741C5.28916 19.7001 5.26504 19.6239 5.24712 19.5462C5.23215 19.5098 5.22056 19.4721 5.2125 19.4337C5.18365 19.3471 5.16346 19.2606 5.14327 19.1769C5.12308 19.0933 5.08846 18.9606 5.06827 18.851C5.04808 18.7414 5.02788 18.6346 5.00769 18.5279C4.9875 18.4212 4.98462 18.3519 4.97308 18.2596C4.96154 18.1673 4.95577 18.1096 4.94712 18.0346C4.93846 17.9596 4.92404 17.8039 4.92115 17.6885C4.91827 17.5731 4.92115 17.4173 4.92115 17.2846C4.92115 17.1519 4.92115 17.0135 4.92115 16.8779C4.92115 16.7423 4.93558 16.6442 4.94712 16.5317C4.95865 16.4192 4.96154 16.3817 4.97308 16.3067C4.98462 16.2317 4.99327 16.1279 5.00769 16.0414C5.02212 15.9548 5.04519 15.825 5.06827 15.7183C5.09135 15.6116 5.11154 15.5164 5.1375 15.4298C5.15805 15.332 5.18503 15.2356 5.21827 15.1414C5.22347 15.1075 5.23317 15.0745 5.24712 15.0433C5.2663 14.9659 5.29038 14.8898 5.31923 14.8154C5.37115 14.651 5.42885 14.4952 5.49519 14.3394C5.52404 14.2615 5.55577 14.1865 5.5875 14.1115L5.66827 13.9385C5.68111 13.9051 5.69756 13.8731 5.71731 13.8433C5.76058 13.7481 5.80673 13.6558 5.85865 13.5548C5.91058 13.4539 5.98269 13.3327 6.04904 13.226C6.11538 13.1192 6.18173 13.0096 6.25096 12.9058C6.32019 12.8019 6.39519 12.701 6.47019 12.6C6.58558 12.45 6.70096 12.3115 6.82212 12.1616C6.88269 12.0923 6.94615 12.0173 7.0125 11.9481C7.07885 11.8789 7.13942 11.8154 7.20865 11.749C7.3875 11.5702 7.57212 11.4029 7.76538 11.2414C7.83462 11.1837 7.90385 11.1289 7.97885 11.074C8.10865 10.9673 8.24712 10.8692 8.38846 10.7856L8.67692 10.5981C8.75481 10.5491 8.83846 10.5029 8.91923 10.4596C9 10.4164 9.03462 10.3904 9.09519 10.3587C9.21058 10.2981 9.32596 10.2404 9.44423 10.1885C9.5625 10.1365 9.67212 10.0817 9.79038 10.0356L10.0962 9.90001C10.1241 9.88782 10.153 9.87816 10.1827 9.87117C10.2721 9.83943 10.3615 9.81059 10.451 9.78751C10.4823 9.77306 10.5152 9.76241 10.549 9.75578C10.6471 9.72693 10.7452 9.70097 10.8375 9.6779C10.9298 9.65482 11.0798 9.61732 11.2038 9.59713C11.3769 9.55963 11.55 9.53366 11.726 9.51347C11.801 9.50193 11.876 9.49328 11.951 9.48751C12.0635 9.48751 12.1817 9.46443 12.2971 9.46155C12.4125 9.45866 12.5683 9.46155 12.7038 9.46155C12.8394 9.46155 12.9721 9.46155 13.1077 9.46155C13.2433 9.46155 13.3385 9.47597 13.4538 9.48751C13.5692 9.49905 13.6038 9.48751 13.6788 9.51347C13.8542 9.53247 14.0285 9.56039 14.201 9.59713C14.3221 9.61732 14.4462 9.64616 14.5702 9.6779L14.9221 9.7702C14.9248 9.76892 14.9278 9.76826 14.9308 9.76826C14.9338 9.76826 14.9367 9.76892 14.9394 9.7702L15.2654 9.87405H15.3087C15.424 9.91443 15.5365 9.96059 15.6462 10.0039C15.7615 10.05 15.8769 10.1019 15.9952 10.1567C16.1135 10.2115 16.2231 10.2664 16.3385 10.3269C16.399 10.3587 16.4567 10.3904 16.5173 10.4279C16.5779 10.4654 16.6788 10.5144 16.7567 10.5664L17.0452 10.7539C17.1865 10.849 17.3337 10.9471 17.4548 11.0423C17.5298 11.0971 17.599 11.1519 17.6683 11.2096C17.8632 11.3683 18.0491 11.5378 18.225 11.7173C18.2913 11.7837 18.3577 11.8471 18.4212 11.9164C18.4846 11.9856 18.551 12.0606 18.6115 12.1298C18.7327 12.2712 18.851 12.4183 18.9635 12.5683C19.0385 12.6692 19.1135 12.7702 19.1827 12.8741C19.2519 12.9779 19.3212 13.0846 19.3846 13.1942C19.4481 13.3039 19.5144 13.4106 19.575 13.5231C19.6356 13.6356 19.6731 13.7048 19.7163 13.8116C19.7361 13.8414 19.7525 13.8733 19.7654 13.9067C19.8058 13.9904 19.8404 14.074 19.8808 14.1577L19.9154 14.2385C19.9558 14.3337 19.9904 14.426 20.0279 14.5269C20.0654 14.6279 20.0885 14.6971 20.1144 14.7837C20.1433 14.858 20.1674 14.9341 20.1865 15.0115C20.2014 15.0427 20.2121 15.0757 20.2183 15.1096C20.2493 15.2043 20.2753 15.3006 20.2962 15.3981C20.3221 15.4991 20.3481 15.6 20.3654 15.6866C20.3827 15.7731 20.4058 15.9029 20.426 16.0096C20.4462 16.1164 20.449 16.1827 20.4606 16.275C20.4721 16.3673 20.4808 16.425 20.4865 16.5C20.4923 16.575 20.5096 16.7308 20.5125 16.8462C20.5154 16.9616 20.5125 17.1173 20.5125 17.2529C20.5125 17.3885 20.5471 17.5702 20.5385 17.7058Z" fill="#E51935"/>
</g>
<defs>
<clipPath id="clip0">
<rect width="25.4019" height="30" fill="white"/>
</clipPath>
</defs>
</svg>
