<svg width="142" height="36" viewBox="0 0 142 36" fill="none" xmlns="http://www.w3.org/2000/svg">
<g clip-path="url(#clip0)">
<path d="M46.9995 8.96937C50.7229 8.96937 53.1249 11.2227 53.1249 17.8862C53.1249 24.5498 50.7098 26.8031 46.9995 26.8031C44.6806 26.8031 43.2105 26.0199 42.2961 24.6811V33.8298C41.7532 33.9772 41.1912 34.0421 40.6291 34.0224C40.0884 34.0437 39.5479 33.9787 39.0277 33.8298V9.52504C39.542 9.34702 40.0854 9.26833 40.6291 9.29314C41.1941 9.27016 41.7587 9.3487 42.2961 9.52504V11.0914C43.2105 9.75255 44.6806 8.96937 46.9995 8.96937ZM45.8532 11.6471C43.5693 11.6471 42.2961 13.5416 42.2961 15.7642V19.9426C42.2961 22.2003 43.5693 24.1254 45.8532 24.1254C48.4784 24.1254 49.791 22.756 49.791 17.8862C49.791 13.0165 48.4696 11.6471 45.8532 11.6471Z" fill="white"/>
<path d="M60.6242 5.99416C60.0756 6.16719 59.5015 6.24561 58.9266 6.22606C58.3498 6.25551 57.7725 6.17687 57.2246 5.99416V2.93145C57.7725 2.74875 58.3498 2.6701 58.9266 2.69956C59.5015 2.68001 60.0756 2.75842 60.6242 2.93145V5.99416ZM60.5586 26.2518C60.0329 26.4263 59.4801 26.5049 58.9266 26.4837C58.3712 26.5153 57.815 26.4365 57.2902 26.2518V9.52503C57.815 9.34036 58.3712 9.26154 58.9266 9.29314C59.4801 9.27199 60.0329 9.35054 60.5586 9.52503V26.2518Z" fill="white"/>
<path d="M70.7837 8.96937C73.9864 8.96937 75.3909 9.84443 75.3909 9.84443C75.417 10.6978 75.1129 11.5285 74.5421 12.1633C73.4293 11.827 72.2742 11.6517 71.1118 11.6427C68.8892 11.6427 67.7778 12.4609 67.7778 13.9966C67.7778 15.5323 69.8386 15.9874 71.895 16.6743C74.017 17.3612 76.2397 18.3719 76.2397 21.5746C76.2397 24.8736 74.1833 26.7987 70.0311 26.7987C66.6053 26.7987 64.5795 25.6262 64.5795 25.6262C64.5583 25.185 64.6247 24.7441 64.7749 24.3288C64.9251 23.9135 65.1561 23.5321 65.4546 23.2066C66.8707 23.7163 68.3602 23.9926 69.8649 24.0248C71.86 24.0248 73.002 23.2722 73.002 21.6709C73.002 19.877 71.2037 19.4832 69.2786 18.9276C67.0559 18.2756 64.6364 17.3262 64.6364 14.0929C64.6407 11.0258 66.6359 8.96937 70.7837 8.96937Z" fill="white"/>
<path d="M93.229 26.2518C92.7033 26.4263 92.1505 26.5049 91.597 26.4837C91.0418 26.5097 90.4867 26.431 89.9606 26.2518V14.491C89.9606 12.6577 89.0156 11.6164 86.9242 11.6164C86.1841 11.6318 85.4593 11.8305 84.8149 12.1947C84.1704 12.559 83.6263 13.0773 83.2314 13.7034V26.2518C82.7048 26.4224 82.1527 26.5008 81.5994 26.4837C81.0454 26.5151 80.4908 26.4363 79.9674 26.2518V2.18765C80.4915 2.00658 81.0458 1.9293 81.5994 1.96013C82.1523 1.94365 82.7041 2.02057 83.2314 2.18765V11.0258C83.8543 10.3437 84.6188 9.80626 85.4714 9.45102C86.3239 9.09578 87.2439 8.93138 88.1668 8.96937C91.4307 8.96937 93.229 10.9601 93.229 13.9003V26.2518Z" fill="white"/>
<path d="M97.7749 9.52503C98.3005 9.34988 98.8534 9.27132 99.4069 9.29314C99.9607 9.26634 100.515 9.34503 101.039 9.52503V21.2858C101.039 23.1147 101.988 24.1604 104.08 24.1604C104.82 24.1478 105.546 23.9497 106.19 23.5844C106.835 23.2191 107.377 22.6981 107.768 22.069V9.52503C108.296 9.35523 108.85 9.27681 109.404 9.29314C109.958 9.26177 110.513 9.34059 111.036 9.52503V26.2518C110.513 26.4363 109.958 26.5151 109.404 26.4837C108.85 26.5 108.296 26.4216 107.768 26.2518V24.7467C107.142 25.4281 106.375 25.965 105.52 26.3201C104.666 26.6752 103.744 26.84 102.82 26.8031C99.5513 26.8031 97.7574 24.8123 97.7574 21.8721L97.7749 9.52503Z" fill="white"/>
<path d="M123.06 9C124.067 8.98809 125.056 9.27261 125.904 9.81818C125.877 10.3524 125.734 10.8743 125.485 11.3479C125.237 11.8215 124.888 12.2356 124.464 12.5615C123.884 12.1148 123.171 11.8732 122.439 11.8746C121.165 11.8746 119.923 12.8546 119.074 14.3597V26.2518C118.548 26.4263 117.995 26.5049 117.442 26.4837C116.887 26.5145 116.331 26.4357 115.806 26.2518V9.52503C116.331 9.34114 116.887 9.26235 117.442 9.29314C117.995 9.27199 118.548 9.35054 119.074 9.52503V11.7783C120.321 9.71755 121.752 9 123.06 9Z" fill="white"/>
<path d="M131.294 18.9013C131.557 22.7866 133.123 24.0292 135.836 24.0292C137.18 24.0457 138.507 23.7189 139.69 23.0797C140.335 23.6963 140.711 24.542 140.736 25.4336C140.736 25.4336 138.872 26.8031 135.311 26.8031C130.283 26.8031 127.93 23.701 127.93 17.79C127.93 11.6164 130.822 8.96937 135.197 8.96937C139.213 8.96937 141.664 11.1877 141.664 15.5323C141.681 16.6657 141.56 17.797 141.305 18.9013H131.294ZM135.197 11.5508C133.07 11.5508 131.57 12.9553 131.307 16.578H138.308C138.37 16.0905 138.403 15.5995 138.404 15.1079C138.382 13.1828 137.599 11.5508 135.197 11.5508Z" fill="white"/>
<path d="M28.5751 5.52164H22.4934L26.4881 9.51629C27.3883 10.4124 28.1745 11.416 28.8289 12.5046C29.052 12.8721 29.2664 13.2484 29.4589 13.6378C29.5596 13.8303 29.6514 14.0272 29.7389 14.2241C29.7914 14.3422 29.8439 14.4604 29.8921 14.5785C29.9402 14.6966 29.9927 14.8148 30.0408 14.9373C30.1327 15.1779 30.2246 15.4229 30.3077 15.668C30.369 15.8474 30.4259 16.0311 30.4827 16.2149V7.43802C30.4839 7.18677 30.4354 6.93777 30.3401 6.70531C30.2447 6.47286 30.1044 6.26153 29.9271 6.08346C29.7499 5.90539 29.5392 5.76409 29.3072 5.66768C29.0751 5.57126 28.8264 5.52163 28.5751 5.52164Z" fill="#F5A3AE"/>
<path d="M21.5571 5.52163L16.5912 0.560034C16.414 0.38263 16.2036 0.241892 15.972 0.145868C15.7404 0.0498447 15.4921 0.000419617 15.2414 0.000419617C14.9906 0.000419617 14.7424 0.0498447 14.5108 0.145868C14.2792 0.241892 14.0688 0.38263 13.8916 0.560034L9.59067 4.86096H15.2436C16.78 4.86038 18.3083 5.08293 19.7808 5.52163C20.835 5.8338 21.853 6.25769 22.8172 6.78609L21.5571 5.52163Z" fill="#EF7586"/>
<path d="M30.4696 20.1264C30.4696 20.0608 30.4696 19.9995 30.4696 19.9383C30.4696 19.7239 30.4434 19.5007 30.4215 19.2995C30.3996 19.0982 30.369 18.8138 30.334 18.5732C30.299 18.3325 30.2596 18.0919 30.2115 17.8512C30.1633 17.6106 30.1152 17.3743 30.054 17.1337C29.9927 16.893 29.9446 16.6962 29.879 16.4774C29.879 16.3943 29.8308 16.3111 29.8046 16.228C29.7564 16.0705 29.7039 15.913 29.6514 15.7598L29.6252 15.6855C29.5639 15.5148 29.4983 15.3442 29.4327 15.1735L29.3539 14.9767C29.2897 14.8104 29.2197 14.6485 29.1439 14.491L29.0783 14.3466C28.9995 14.1716 28.912 13.9966 28.8245 13.826L28.7064 13.6028C28.6057 13.4059 28.4964 13.2134 28.3826 13.0209C28.2688 12.8284 28.1901 12.7059 28.0894 12.5484C27.9888 12.3909 27.8051 12.1108 27.6519 11.9052C27.6004 11.8266 27.5449 11.7506 27.4857 11.6777C27.3325 11.472 27.175 11.2664 27.0131 11.0695C26.8512 10.8726 26.79 10.8026 26.6719 10.6714L26.5231 10.5007C26.3568 10.3213 26.1906 10.1463 26.0199 9.97131C24.6057 8.55491 22.9258 7.43158 21.0766 6.66576C19.2273 5.89993 17.2451 5.50666 15.2436 5.5085H1.91201C1.65944 5.50849 1.40937 5.55852 1.17625 5.6557C0.943125 5.75288 0.731566 5.89529 0.553789 6.07469C0.376012 6.25409 0.235541 6.46694 0.140489 6.70094C0.0454371 6.93494 -0.00231184 7.18545 -3.28873e-09 7.43801V20.7608C-3.28873e-09 20.9708 -3.28873e-09 21.1983 -3.28873e-09 21.3952C-3.28873e-09 21.4609 -3.28873e-09 21.5221 -3.28873e-09 21.5834C-3.28873e-09 21.7978 0.0262518 22.0209 0.0481283 22.2222C0.0700049 22.4234 0.100632 22.7078 0.135634 22.9485C0.170637 23.1891 0.210015 23.4341 0.258143 23.6748C0.306271 23.9154 0.376276 24.1517 0.43753 24.3923C0.498785 24.633 0.546913 24.8298 0.608167 25.0355C0.669421 25.2411 0.778804 25.5911 0.875061 25.8624C0.930481 26.0228 0.991736 26.1847 1.05882 26.3481C1.09383 26.4312 1.12445 26.51 1.15946 26.5887C1.19446 26.6675 1.22509 26.7462 1.26009 26.8206C1.29498 26.9115 1.3344 27.0006 1.37822 27.0875C1.40526 27.1533 1.43593 27.2176 1.4701 27.28C1.47659 27.3048 1.48692 27.3284 1.50073 27.35C1.57073 27.4988 1.64511 27.6475 1.72387 27.7875C1.74138 27.8306 1.76338 27.8716 1.7895 27.9101C1.80206 27.9424 1.8182 27.9732 1.83763 28.0019C1.85979 28.0485 1.88463 28.0938 1.91201 28.1376C1.94711 28.2085 1.98656 28.2772 2.03014 28.3432C2.05014 28.3859 2.07355 28.4268 2.10015 28.4657L2.13077 28.5138C2.18328 28.6057 2.23578 28.6976 2.29703 28.7895C2.35829 28.8814 2.41954 28.9908 2.48517 29.087L2.52017 29.1395L2.59893 29.262L2.66456 29.3539L2.75207 29.4808L2.8177 29.5683C2.86582 29.6427 2.9227 29.7171 2.97521 29.7914L3.02333 29.8571C3.15168 30.0262 3.28294 30.1925 3.41711 30.3558L3.47837 30.4346L3.53962 30.5046C3.64025 30.6315 3.74964 30.7496 3.85464 30.8721L3.93777 30.9771L3.96403 31.0078L4.00778 31.0515C4.02271 31.0686 4.03879 31.0847 4.05591 31.0997C4.18717 31.2484 4.32718 31.3928 4.49344 31.5372C4.6597 31.6816 4.84346 31.8785 5.02285 32.0403L5.13661 32.141C5.24599 32.2416 5.351 32.3335 5.46475 32.4254L5.55664 32.5041L5.63539 32.5654C5.78415 32.6879 5.93729 32.806 6.07292 32.9198C6.08548 32.9338 6.10026 32.9456 6.11667 32.9548C6.2771 33.0773 6.44336 33.1954 6.61546 33.3092L6.76859 33.4186C6.8386 33.4667 6.90423 33.5104 6.97423 33.5498L7.01799 33.5804L7.13174 33.6505L7.17987 33.6767L7.24113 33.7205L7.31988 33.7686L7.40301 33.8167C7.58678 33.9276 7.77054 34.0326 7.9543 34.1317L8.01118 34.1624L8.28245 34.3067C8.38746 34.3636 8.49684 34.4161 8.60622 34.4643C8.77686 34.5474 8.95187 34.6261 9.12688 34.7005C9.20218 34.7385 9.2796 34.7721 9.35877 34.8012L9.60379 34.9018C9.76422 34.9689 9.92611 35.0301 10.0894 35.0856C10.3607 35.1818 10.6364 35.2737 10.9164 35.3524C11.1293 35.4137 11.3437 35.4706 11.5596 35.5231C11.8002 35.5843 12.0365 35.6368 12.2771 35.6806C12.5177 35.7243 12.7584 35.7681 13.0034 35.8031C13.2484 35.8381 13.4847 35.8687 13.7297 35.8906C13.9747 35.9125 14.1672 35.9256 14.3685 35.9387H14.5566C14.7667 35.9387 14.9942 35.9387 15.1911 35.9387C15.3879 35.9387 15.6286 35.9387 15.8255 35.9387H16.0092C16.2236 35.9387 16.4468 35.9125 16.648 35.8906C16.8493 35.8687 17.1381 35.8381 17.3787 35.8031C17.6193 35.7681 17.86 35.7287 18.1006 35.6806C18.3413 35.6325 18.5775 35.5843 18.8182 35.5231C19.0588 35.4618 19.2557 35.4137 19.4614 35.3524L19.7195 35.2737L20.192 35.1206L20.2664 35.0943L20.7783 34.9018C20.9402 34.8405 21.1065 34.7705 21.264 34.6961C21.4215 34.6218 21.614 34.543 21.7846 34.4599H21.8109H21.859C22.0515 34.3695 22.2397 34.2732 22.4234 34.1711H22.4541C22.4856 34.1553 22.5163 34.1377 22.5459 34.1186C22.6976 34.0369 22.8508 33.9494 23.0053 33.8561C23.1235 33.7905 23.2372 33.7205 23.351 33.6417L23.4035 33.6111L23.6529 33.4492C23.7885 33.3573 23.9198 33.2698 24.0467 33.1735L24.2698 33.016L24.3092 32.9854C24.4754 32.8585 24.6417 32.7316 24.8036 32.596L24.8824 32.5348L24.9611 32.4691L25.0355 32.4035C25.1186 32.3379 25.1974 32.2679 25.2761 32.1935L25.368 32.1191L25.4249 32.0666C25.6043 31.9003 25.7793 31.7341 25.9499 31.5634C26.1206 31.3928 26.2912 31.2134 26.4531 31.034C26.615 30.8546 26.6762 30.7846 26.7812 30.6577L26.9344 30.4827C26.9535 30.4569 26.9739 30.4321 26.9956 30.4084C27.1006 30.2771 27.21 30.1371 27.3106 30.0014C27.3378 29.9713 27.3627 29.9391 27.385 29.9052C27.5075 29.7418 27.6257 29.5756 27.7394 29.4064L27.8488 29.2533C27.8969 29.1833 27.9407 29.1176 27.9801 29.0476C27.9917 29.0341 28.002 29.0195 28.0107 29.0039L28.0807 28.8901L28.107 28.842L28.1507 28.7807C28.1712 28.7511 28.1902 28.7204 28.2076 28.6889L28.2557 28.6057C28.3666 28.422 28.4716 28.2382 28.5707 28.0544L28.6014 27.9976C28.6451 27.9232 28.6845 27.8444 28.7239 27.7657C28.7253 27.7526 28.7253 27.7394 28.7239 27.7263C28.7764 27.6213 28.8289 27.5163 28.877 27.4113C28.9601 27.2406 29.0389 27.0656 29.1133 26.8906C29.1513 26.8153 29.1849 26.7379 29.2139 26.6587C29.2489 26.58 29.2795 26.5012 29.3145 26.4181C29.3816 26.2606 29.4429 26.0987 29.4983 25.9324C29.4983 25.8843 29.5289 25.8362 29.5464 25.788C29.6252 25.5649 29.6996 25.3505 29.7652 25.1055C29.8308 24.8605 29.8833 24.668 29.9358 24.4623C29.9665 24.3442 29.9927 24.2304 30.0146 24.1167C30.0365 24.0029 30.0496 23.9723 30.0627 23.9023C30.0721 23.8604 30.0794 23.818 30.0846 23.7754C30.0865 23.7653 30.0865 23.7549 30.0846 23.7448C30.0866 23.7288 30.0866 23.7126 30.0846 23.6966C30.1108 23.5654 30.1327 23.4341 30.1546 23.2985L30.1808 23.1541C30.1808 23.1103 30.1808 23.0666 30.1808 23.0185C30.2158 22.7778 30.2465 22.5372 30.2684 22.2922C30.2902 22.0471 30.3034 21.8546 30.3165 21.6534C30.3165 21.5921 30.3165 21.5309 30.3165 21.4652C30.3165 21.2552 30.3165 21.0277 30.3165 20.8308C30.3165 20.6339 30.4784 20.3364 30.4696 20.1264ZM24.6461 21.2465C24.6461 21.3865 24.6461 21.5265 24.6155 21.6621C24.5848 21.7978 24.6155 21.8459 24.5848 21.9334C24.5542 22.0209 24.5586 22.1478 24.5411 22.2528C24.5236 22.3578 24.4973 22.5109 24.4711 22.6422C24.4448 22.7734 24.4142 22.9047 24.3792 23.0316C24.3571 23.1366 24.3293 23.2403 24.2961 23.3422C24.2876 23.3887 24.2744 23.4341 24.2567 23.4779C24.2341 23.5703 24.2049 23.661 24.1692 23.7491C24.1386 23.8541 24.1035 23.9592 24.0642 24.0598C24.0248 24.1604 23.9767 24.2917 23.9285 24.4054L23.8892 24.5017C23.841 24.6067 23.7929 24.7073 23.7491 24.808C23.7054 24.9086 23.7098 24.8823 23.6923 24.9173C23.6398 25.0311 23.5829 25.1405 23.5216 25.2499C23.4604 25.3593 23.3729 25.5168 23.2941 25.6436C23.2154 25.7705 23.1322 25.9018 23.0491 26.0287C22.966 26.1556 22.8785 26.2737 22.7866 26.3962C22.6947 26.5187 22.5109 26.7506 22.3491 26.9212C22.2747 27.0044 22.2003 27.0919 22.1215 27.175L21.8853 27.4156C21.6737 27.6307 21.4502 27.8338 21.2158 28.0238L20.9621 28.2251C20.8046 28.352 20.6383 28.4701 20.4677 28.5839L20.1089 28.8114C20.017 28.8726 19.9164 28.9251 19.8201 28.9776C19.7511 29.0213 19.6795 29.0607 19.6057 29.0958C19.4701 29.1701 19.3345 29.2358 19.1945 29.3014L18.7569 29.4852L18.3544 29.6383H18.3019L17.9081 29.7652L17.4706 29.8789C17.3218 29.9139 17.1731 29.9489 17.0331 29.9752C16.893 30.0015 16.5955 30.0496 16.4074 30.0758L16.1361 30.1065C15.9961 30.1065 15.8605 30.1327 15.7205 30.1371C15.5805 30.1415 15.3967 30.1371 15.2348 30.1371C15.0729 30.1371 14.911 30.1371 14.7491 30.1371C14.5873 30.1371 14.4691 30.1371 14.3335 30.1065L14.0622 30.0758C13.8522 30.0496 13.6247 30.019 13.4366 29.9752C13.2484 29.9314 13.139 29.9139 12.999 29.8789L12.6403 29.7827C12.5998 29.7751 12.5602 29.7633 12.5221 29.7477L12.2027 29.6471L12.0977 29.612L11.7039 29.4633C11.5639 29.4064 11.4239 29.3452 11.2883 29.2795C11.1526 29.2139 11.0083 29.1483 10.8508 29.0739C10.777 29.0388 10.7054 28.9994 10.6364 28.9558L10.3476 28.7895L9.98882 28.562C9.81818 28.4482 9.65192 28.3301 9.49441 28.2032L9.24064 28.0019C9.00875 27.8094 8.80311 27.6082 8.57122 27.3938C8.48809 27.315 8.40933 27.2363 8.33495 27.1531C8.26057 27.07 8.18182 26.9825 8.10744 26.8994C7.96159 26.7273 7.81575 26.5523 7.66991 26.3743C7.57657 26.2518 7.48906 26.1293 7.40739 26.0068C7.32426 25.8799 7.24113 25.753 7.16237 25.6218C7.08362 25.4905 7.00924 25.3636 6.93486 25.228C6.86048 25.0924 6.81672 25.0092 6.76422 24.8955L6.70734 24.7861C6.67671 24.7161 6.64171 24.6461 6.61108 24.5717C6.58046 24.4973 6.53233 24.3923 6.49733 24.3004C6.41857 24.1123 6.34857 23.9242 6.28731 23.7273C6.2516 23.6391 6.22235 23.5484 6.19981 23.456C6.18208 23.4122 6.16889 23.3668 6.16043 23.3204C6.12715 23.2184 6.0994 23.1147 6.0773 23.0097C6.04229 22.8828 6.01167 22.7516 5.98542 22.6203C5.95916 22.4891 5.93729 22.3622 5.91541 22.2309C5.89353 22.0997 5.88478 22.0209 5.87166 21.9115C5.85853 21.8021 5.84978 21.7321 5.84103 21.6402C5.83228 21.5484 5.81478 21.3646 5.8104 21.2246C5.80603 21.0846 5.8104 20.9008 5.8104 20.7389C5.8104 20.577 5.8104 20.4152 5.8104 20.2533C5.8104 20.0914 5.8104 19.9733 5.84103 19.8157C5.87166 19.6582 5.84103 19.6364 5.87166 19.5445C5.90228 19.4526 5.89791 19.3301 5.91541 19.2251C5.93291 19.1201 5.95916 18.9669 5.98542 18.8401C6.01167 18.7132 6.03792 18.595 6.06855 18.4769C6.09449 18.3557 6.12662 18.236 6.1648 18.1181C6.17241 18.0777 6.18414 18.0381 6.19981 18C6.22364 17.9079 6.25286 17.8174 6.28731 17.7287C6.34857 17.5318 6.41857 17.3437 6.49733 17.1556C6.53233 17.0637 6.57171 16.9718 6.61108 16.8843L6.70734 16.6743C6.72365 16.6351 6.74265 16.5971 6.76422 16.5605C6.81672 16.4468 6.8736 16.3374 6.93486 16.228C6.99611 16.1186 7.08362 15.9611 7.16237 15.8342C7.24113 15.7073 7.32426 15.5761 7.40739 15.4492C7.49052 15.3223 7.57803 15.2042 7.66991 15.0817C7.76179 14.9592 7.94555 14.7273 8.10744 14.5566C8.18182 14.4735 8.2562 14.386 8.33495 14.3029C8.41371 14.2197 8.48809 14.141 8.57122 14.0622C8.78561 13.8478 9.00875 13.6466 9.24064 13.4541L9.49441 13.2528C9.65192 13.1259 9.81818 13.0078 9.98882 12.894L10.3476 12.6665L10.6364 12.5002C10.7054 12.4566 10.777 12.4172 10.8508 12.3821C10.9864 12.3077 11.1264 12.2377 11.2883 12.1765C11.4502 12.1152 11.5639 12.0496 11.7039 11.9927L12.0977 11.8439L12.2027 11.8089L12.5221 11.7083C12.5602 11.6926 12.5998 11.6809 12.6403 11.6733L12.999 11.577C13.1434 11.542 13.2922 11.507 13.4366 11.4808C13.5809 11.4545 13.8522 11.4064 14.0622 11.3802L14.3335 11.3495C14.4691 11.3495 14.6091 11.3233 14.7491 11.3189C14.8892 11.3145 15.0729 11.3189 15.2348 11.3189C15.3967 11.3189 15.5586 11.3189 15.7205 11.3189C15.8824 11.3189 15.9961 11.3189 16.1361 11.3495L16.4074 11.3802C16.6174 11.4064 16.8449 11.437 17.0331 11.4808C17.2212 11.5245 17.3262 11.542 17.4706 11.577L17.9081 11.6908L18.3019 11.8177H18.3544L18.7569 11.9708C18.8969 12.0292 19.0428 12.0904 19.1945 12.1546C19.3345 12.2202 19.4701 12.2858 19.6057 12.3602C19.6795 12.3953 19.7511 12.4347 19.8201 12.4784C19.9164 12.5309 20.017 12.5834 20.1089 12.6446L20.4677 12.8721C20.6383 12.9859 20.8046 13.104 20.9621 13.2309L21.2158 13.4322C21.4502 13.6222 21.6737 13.8253 21.8853 14.0403L22.1215 14.281C22.2003 14.3641 22.2747 14.4516 22.3491 14.5348C22.4949 14.7068 22.6407 14.8819 22.7866 15.0598C22.877 15.1823 22.9645 15.3048 23.0491 15.4273C23.1322 15.5542 23.2154 15.6811 23.2941 15.8123C23.3729 15.9436 23.4473 16.0705 23.5216 16.2061C23.596 16.3418 23.6398 16.4249 23.6923 16.5386C23.7138 16.5752 23.7328 16.6132 23.7491 16.6524L23.8892 16.9543L23.9285 17.0506C23.9767 17.1643 24.0204 17.2781 24.0642 17.3962C24.1079 17.5143 24.1386 17.6018 24.1692 17.7068C24.2036 17.7955 24.2329 17.8861 24.2567 17.9781C24.2723 18.0162 24.2841 18.0558 24.2917 18.0962C24.3299 18.2141 24.362 18.3339 24.3879 18.455C24.4186 18.5732 24.4492 18.6957 24.4711 18.8182C24.493 18.9407 24.5192 19.0763 24.5411 19.2032C24.563 19.3301 24.5717 19.4132 24.5848 19.5226C24.598 19.632 24.6067 19.702 24.6155 19.7939C24.6242 19.8857 24.6417 20.0695 24.6461 20.2314C24.6505 20.3933 24.6461 20.5552 24.6461 20.7171C24.6461 20.8789 24.6548 21.0846 24.6461 21.2465Z" fill="#E51935"/>
</g>
<defs>
<clipPath id="clip0">
<rect width="141.65" height="36" fill="white"/>
</clipPath>
</defs>
</svg>
