<svg width="24" height="20" viewBox="0 0 24 20" fill="none" xmlns="http://www.w3.org/2000/svg">
<path d="M20.8757 15.1514C20.8757 16.803 19.5315 18.1471 17.88 18.1471L4.77573 18.1482C3.12418 18.1482 1.78002 16.804 1.78002 15.1525V7.50824C1.78002 5.85669 3.12424 4.51252 4.77573 4.51252H6.65151L7.29574 4.06407L7.82729 2.6083C8.10729 2.10407 8.61151 1.82407 9.17151 1.82407H13.4001C13.9601 1.82407 14.4916 2.13252 14.7716 2.66407L15.1074 3.27985L16.339 2.6083L16.0032 1.99252C15.4716 1.01252 14.4916 0.424072 13.399 0.424072H9.20007C8.10852 0.424072 7.10007 1.03985 6.59585 1.99252L6.17585 3.14097H4.77585C2.34007 3.14097 0.380127 5.10097 0.380127 7.53669V15.181C0.380127 17.6167 2.34013 19.5767 4.77585 19.5767L17.8801 19.5756C20.3159 19.5756 22.2758 17.6156 22.2758 15.1799V9.29987H20.8758L20.8757 15.1514Z" fill="white"/>
<path d="M11.3 5.49139C8.38858 5.49139 6.00858 7.8714 6.00858 10.7828C6.00858 13.6943 8.38858 16.0743 11.3 16.0743C14.2115 16.0743 16.5915 13.6943 16.5915 10.7828C16.5915 7.8714 14.2115 5.49139 11.3 5.49139ZM11.3 14.6757C9.14424 14.6757 7.40858 12.9399 7.40858 10.7842C7.40858 8.62857 9.14435 6.89279 11.3 6.89279C13.4557 6.89279 15.1915 8.62857 15.1915 10.7842C15.1915 12.9399 13.4557 14.6757 11.3 14.6757Z" fill="white"/>
<path d="M21.1 3.58857V0.871704H19.7V3.58857H16.9843V4.98857H19.7V7.67593H21.1V4.98857H23.8158V3.58857H21.1Z" fill="white"/>
</svg>
