<svg width="20" height="20" viewBox="0 0 20 20" fill="none" xmlns="http://www.w3.org/2000/svg">
<path d="M5 10C5 11.3805 3.88046 12.5 2.5 12.5C1.11954 12.5 0 11.3805 0 10C0 8.61954 1.11954 7.5 2.5 7.5C3.88046 7.5 5 8.61954 5 10Z" fill="white"/>
<path d="M12.5 10C12.5 11.3805 11.3805 12.5 10 12.5C8.61954 12.5 7.5 11.3805 7.5 10C7.5 8.61954 8.61954 7.5 10 7.5C11.3805 7.5 12.5 8.61954 12.5 10Z" fill="white"/>
<path d="M20 10C20 11.3805 18.8805 12.5 17.5 12.5C16.1195 12.5 15 11.3805 15 10C15 8.61954 16.1195 7.5 17.5 7.5C18.8805 7.5 20 8.61954 20 10Z" fill="white"/>
</svg>
