<svg width="80" height="80" viewBox="0 0 80 80" fill="none" xmlns="http://www.w3.org/2000/svg">
<circle opacity="0.1" cx="40" cy="40" r="40" fill="#E21F3B"/>
<path d="M60 56.014C59.9963 56.5392 59.7862 57.042 59.415 57.4136C59.0438 57.7852 58.5412 57.9958 58.016 58H21.984C21.4576 57.9995 20.953 57.79 20.581 57.4176C20.209 57.0452 20 56.5404 20 56.014V54H56V30.6L40 45L20 27V24C20 23.4696 20.2107 22.9609 20.5858 22.5858C20.9609 22.2107 21.4696 22 22 22H58C58.5304 22 59.0391 22.2107 59.4142 22.5858C59.7893 22.9609 60 23.4696 60 24V56.014ZM24.868 26L40 39.62L55.132 26H24.868ZM16 46H32V50H16V46ZM16 36H26V40H16V36Z" fill="#E21F3B"/>
</svg>
