<svg width="20" height="20" viewBox="0 0 20 20" fill="none" xmlns="http://www.w3.org/2000/svg">
<path d="M20 10C20 4.47717 15.5229 2.28882e-05 10 2.28882e-05C4.47715 2.28882e-05 0 4.47717 0 10C0 14.9913 3.65686 19.1283 8.4375 19.8785V12.8906H5.89844V10H8.4375V7.7969C8.4375 5.29065 9.93043 3.90627 12.2146 3.90627C13.3087 3.90627 14.4531 4.10159 14.4531 4.10159V6.56252H13.1921C11.9499 6.56252 11.5625 7.33336 11.5625 8.12418V10H14.3359L13.8926 12.8906H11.5625V19.8785C16.3431 19.1283 20 14.9913 20 10Z" fill="#1877F2"/>
<path d="M13.8925 12.8907L14.3358 10.0001H11.5624V8.12422C11.5624 7.3334 11.9498 6.56256 13.1921 6.56256H14.453V4.10162C14.453 4.10162 13.3086 3.90631 12.2145 3.90631C9.93032 3.90631 8.43739 5.29069 8.43739 7.79694V10.0001H5.89832V12.8907H8.43739V19.8786C8.94651 19.9585 9.46833 20.0001 9.99989 20.0001C10.5315 20.0001 11.0533 19.9585 11.5624 19.8786V12.8907H13.8925Z" fill="white"/>
</svg>
