<svg width="20" height="17" viewBox="0 0 20 17" fill="none" xmlns="http://www.w3.org/2000/svg">
<path d="M6.27501 16.2622C13.8272 16.2622 17.9566 10.0043 17.9566 4.58067C17.9566 4.40187 17.9566 4.22307 17.9481 4.05279C18.7484 3.47382 19.4466 2.75011 20 1.92422C19.2678 2.24777 18.4759 2.46914 17.6415 2.57131C18.493 2.06045 19.1401 1.26011 19.4466 0.297999C18.6547 0.766284 17.7778 1.10685 16.8412 1.29417C16.092 0.493827 15.0277 0 13.8442 0C11.5794 0 9.74032 1.83908 9.74032 4.10387C9.74032 4.42742 9.77437 4.74244 9.851 5.04044C6.43678 4.87016 3.41422 3.23542 1.38782 0.749255C1.03874 1.35377 0.834398 2.06045 0.834398 2.80971C0.834398 4.23159 1.55811 5.4917 2.66496 6.22393C1.99234 6.2069 1.36228 6.01958 0.808855 5.71307C0.808855 5.7301 0.808855 5.74713 0.808855 5.76415C0.808855 7.75649 2.22222 9.40826 4.10387 9.7914C3.7633 9.88506 3.39719 9.93614 3.02256 9.93614C2.75862 9.93614 2.50319 9.9106 2.24777 9.85952C2.76714 11.4943 4.28267 12.6777 6.07918 12.7118C4.67433 13.8101 2.90336 14.4657 0.97914 14.4657C0.647084 14.4657 0.323542 14.4487 0 14.4061C1.79651 15.5811 3.95913 16.2622 6.27501 16.2622Z" fill="white"/>
</svg>
